/* XPM */
static char * x[] = {
"16 16 58 1",
" 	c None",
".	c #2244AB",
"+	c #2345AF",
"@	c #2648AC",
"#	c #2749B8",
"$	c #2E50B4",
"%	c #2D4FC5",
"&	c #3551BF",
"*	c #3456D2",
"=	c #395BBE",
"-	c #3C5EDF",
";	c #4163E8",
">	c #4163E9",
",	c #4567CC",
"'	c #4466EE",
")	c #5274D9",
"!	c #5D7FE4",
"~	c #6587ED",
"{	c #758CE9",
"]	c #768DE9",
"^	c #92A9EE",
"/	c #CECECE",
"(	c #D0D0D2",
"_	c #D1D1D2",
":	c #D4D4D8",
"<	c #D6D6D7",
"[	c #D1D5F2",
"}	c #D3D7F3",
"|	c #D8D8DB",
"1	c #D9D9E0",
"2	c #DADAE1",
"3	c #D6DAF9",
"4	c #DBDBE1",
"5	c #DDDDDE",
"6	c #DFDFE7",
"7	c #E0E0E0",
"8	c #E4E4EB",
"9	c #E4E4EF",
"0	c #E5E5E7",
"a	c #E7E7F1",
"b	c #E8E8F7",
"c	c #EAEAED",
"d	c #EBEBEB",
"e	c #E7EBF8",
"f	c #E8ECF9",
"g	c #ECECFC",
"h	c #EDEDF1",
"i	c #EEEEEE",
"j	c #EAEFFC",
"k	c #F0F0F0",
"l	c #F3F3F3",
"m	c #F4F4F4",
"n	c #F6F6F6",
"o	c #F7F7F7",
"p	c #F9F9F9",
"q	c #FAFAFA",
"r	c #FBFBFB",
"s	c #FFFFFF",
"                ",
"  ~~~~~~~~~~~~  ",
" !^jssssssssj^! ",
" )frrrrrrrrrre) ",
" ,rooooooooooq, ",
" =plllllllllln= ",
" $nkkkd7<_//_5$ ",
" @mi@@@@@@@@(<@ ",
" .l0'''''''':|. ",
" +c2hhhhhhhh14+ ",
" #866666666666# ",
" %a99999999999% ",
" *}bbbbbbbbbb[* ",
" -]3gggggggg3{- ",
"  &;>>>>>>>>;&  ",
"                "};
